{"title":"Wiz Khalifa Ft. Charlie Puth - See You Again [MV] 720p [Sbyky]","uid":12071601,"size":33311072,"categoryP":"video","categoryS":"music_videos","magnet":"?xt=urn:btih:cd446f6cc2f64dc5bcbef0fd59f2f32a3ba91cfe&amp;dn=Wiz+Khalifa+Ft.+Charlie+Puth+-+See+You+Again+%5BMV%5D+720p+%5BSbyky%5D&amp;tr=udp%3A%2F%2Ftracker.openbittorrent.com%3A80&amp;tr=udp%3A%2F%2Fopen.demonii.com%3A1337&amp;tr=udp%3A%2F%2Ftracker.coppersurfer.tk%3A6969&amp;tr=udp%3A%2F%2Fexodus.desync.com%3A6969","seeders":0,"leechers":0,"uploader":"Sbyky","files":1,"time":1435527906,"description":"General\nComplete name                            : Wiz Khalifa Ft. Charlie Puth - See You Again [Music Video] 720p [Sbyky].mp4\nFormat                                   : MPEG-4\nFormat profile                           : Base Media\nCodec ID                                 : isom\nFile size                                : 31.8 MiB\nDuration                                 : 3mn 57s\nOverall bit rate mode                    : Variable\nOverall bit rate                         : 1 122 Kbps\nEncoded date                             : UTC 2015-04-13 05:55:22\nTagged date                              : UTC 2015-04-13 05:55:22\n\nVideo\nID                                       : 1\nFormat                                   : AVC\nFormat/Info                              : Advanced Video Codec\nFormat profile                           : &lt;a class=&quot;__cf_email__&quot; href=&quot;/cdn-cgi/l/email-protection&quot; data-cfemail=&quot;3f725e56517f730c110e&quot;&gt;[email&amp;#160;protected]&lt;/a&gt;&lt;script data-cfhash='f9e31' type=&quot;text/javascript&quot;&gt;\n/* &lt;![CDATA[ */!function(){try{var t=&quot;currentScript&quot;in document?document.currentScript:function(){for(var t=document.getElementsByTagName(&quot;script&quot;),e=t.length;e--;)if(t[e].getAttribute(&quot;data-cfhash&quot;))return t[e]}();if(t&amp;&amp;t.previousSibling){var e,r,n,i,c=t.previousSibling,a=c.getAttribute(&quot;data-cfemail&quot;);if(a){for(e=&quot;&quot;,r=parseInt(a.substr(0,2),16),n=2;a.length-n;n+=2)i=parseInt(a.substr(n,2),16)^r,e+=String.fromCharCode(i);e=document.createTextNode(e),c.parentNode.replaceChild(e,c)}t.parentNode.removeChild(t);}}catch(u){}}()/* ]]&gt; */&lt;/script&gt;\nFormat settings, CABAC                   : Yes\nFormat settings, ReFrames                : 3 frames\nCodec ID                                 : avc1\nCodec ID/Info                            : Advanced Video Coding\nDuration                                 : 3mn 57s\nBit rate                                 : 993 Kbps\nWidth                                    : 1 280 pixels\nHeight                                   : 720 pixels\nDisplay aspect ratio                     : 16:9\nFrame rate mode                          : Variable\nFrame rate                               : 23.976 fps\nMinimum frame rate                       : 23.974 fps\nMaximum frame rate                       : 23.981 fps\nColor space                              : YUV\nChroma subsampling                       : 4:2:0\nBit depth                                : 8 bits\nScan type                                : Progressive\nBits/(Pixel*Frame)                       : 0.045\nStream size                              : 28.1 MiB (88%)\nEncoded date                             : UTC 2015-04-13 05:55:22\nTagged date                              : UTC 2015-04-13 05:55:22\n\nAudio\nID                                       : 2\nFormat                                   : AAC\nFormat/Info                              : Advanced Audio Codec\nFormat profile                           : LC\nCodec ID                                 : 40\nDuration                                 : 3mn 57s\nBit rate mode                            : Variable\nBit rate                                 : 126 Kbps\nChannel(s)                               : 2 channels\nChannel positions                        : Front: L R\nSampling rate                            : 44.1 KHz\nCompression mode                         : Lossy\nStream size                              : 3.55 MiB (11%)\nEncoded date                             : UTC 2015-04-13 05:52:05\nTagged date                              : UTC 2015-04-13 05:52:05\n\nShared By Sbyky\n[IMG]http://yuq.me/users/18/139/0aq32UMZvX.gif[/IMG]\n[IMG]http://yuq.me/users/18/139/bQg62viaEG.gif[/IMG]","torrent":{"xt":"urn:btih:cd446f6cc2f64dc5bcbef0fd59f2f32a3ba91cfe","amp;dn":"Wiz+Khalifa+Ft.+Charlie+Puth+-+See+You+Again+%5BMV%5D+720p+%5BSbyky%5D","amp;tr":["udp%3A%2F%2Ftracker.openbittorrent.com%3A80","udp%3A%2F%2Fopen.demonii.com%3A1337","udp%3A%2F%2Ftracker.coppersurfer.tk%3A6969","udp%3A%2F%2Fexodus.desync.com%3A6969"],"infoHash":"cd446f6cc2f64dc5bcbef0fd59f2f32a3ba91cfe","infoHashBuffer":{"type":"Buffer","data":[205,68,111,108,194,246,77,197,188,190,240,253,89,242,243,42,59,169,28,254]},"announce":[],"urlList":[]}}